<?xml version="1.0" encoding="UTF-8" standalone="no"?>
<!-- Generated by IcoMoon.io -->

<svg
   xmlns:dc="http://purl.org/dc/elements/1.1/"
   xmlns:cc="http://creativecommons.org/ns#"
   xmlns:rdf="http://www.w3.org/1999/02/22-rdf-syntax-ns#"
   xmlns:svg="http://www.w3.org/2000/svg"
   xmlns="http://www.w3.org/2000/svg"
   xmlns:sodipodi="http://sodipodi.sourceforge.net/DTD/sodipodi-0.dtd"
   xmlns:inkscape="http://www.inkscape.org/namespaces/inkscape"
   version="1.1"
   width="64"
   height="64"
   viewBox="0 0 64 64"
   id="svg846"
   sodipodi:docname="0004-office.svg"
   inkscape:version="0.92.4 (5da689c313, 2019-01-14)">
  <metadata
     id="metadata852">
    <rdf:RDF>
      <cc:Work
         rdf:about="">
        <dc:format>image/svg+xml</dc:format>
        <dc:type
           rdf:resource="http://purl.org/dc/dcmitype/StillImage" />
      </cc:Work>
    </rdf:RDF>
  </metadata>
  <defs
     id="defs850" />
  <sodipodi:namedview
     pagecolor="#ffffff"
     bordercolor="#666666"
     borderopacity="1"
     objecttolerance="10"
     gridtolerance="10"
     guidetolerance="10"
     inkscape:pageopacity="0"
     inkscape:pageshadow="2"
     inkscape:window-width="2490"
     inkscape:window-height="1376"
     id="namedview848"
     showgrid="true"
     showguides="true"
     inkscape:zoom="9.46875"
     inkscape:cx="26.757129"
     inkscape:cy="30.778369"
     inkscape:window-x="70"
     inkscape:window-y="27"
     inkscape:window-maximized="1"
     inkscape:current-layer="svg846">
    <inkscape:grid
       type="xygrid"
       id="grid856" />
  </sodipodi:namedview>
  <g
     id="g894"
     transform="rotate(4.7961041,-27.196702,-89.954064)">
    <circle
       r="3.2739275"
       cy="14.046205"
       cx="44.462048"
       id="path854"
       style="opacity:1;fill:#000000;fill-opacity:0.96862745;stroke:none;stroke-width:3.77952766;stroke-linejoin:bevel;stroke-miterlimit:4;stroke-dasharray:none;stroke-opacity:1" />
    <path
       sodipodi:nodetypes="csssssc"
       inkscape:connector-curvature="0"
       id="path858"
       d="m 37,15 c 0,0 10.848664,5.4 12.517689,5.4 1.669026,0 5.841589,-1.8 6.676102,-0.9 0.834512,0.9 -3.549272,3.232673 -6.05281,3.232673 C 47.637443,22.732673 38.633663,17 35.859028,16.432674 34.223833,16.098328 30,17 29.20367,16.166337 28.145872,15.058948 36,14 37,15 Z"
       style="fill:#000000;fill-opacity:0.96862745;stroke:#000000;stroke-width:0.866638px;stroke-linecap:butt;stroke-linejoin:miter;stroke-opacity:1" />
    <path
       sodipodi:nodetypes="csssssc"
       inkscape:connector-curvature="0"
       id="path858-3"
       d="m 35,32 c 0,0 2.306491,-5.640711 3.358329,-7.34178 1.051838,-1.70107 2.614027,-6.266307 3.99048,-6.590923 1.376454,-0.324615 0.459229,5.714903 -1.118528,8.266507 -1.577757,2.551604 -2.751285,4.963424 -3.803123,6.664494 -1.051838,1.701069 -9.64498,6.902692 -10.65098,5.655995 C 25.888082,37.553708 31.51987,35.726754 35,32 Z"
       style="fill:#000000;fill-opacity:0.96862745;stroke:#000000;stroke-width:1px;stroke-linecap:butt;stroke-linejoin:miter;stroke-opacity:1" />
    <path
       sodipodi:nodetypes="cscsssc"
       inkscape:connector-curvature="0"
       id="path858-6"
       d="m 45,33 c 0,0 1.943894,2.310231 3.383303,4.41739 C 49.565626,39.148201 52,41 51,42 50,43 48.246076,41.05587 46.395558,39.107731 44.782178,37.409241 43.838284,35.415842 42.598712,34.048569 41.190846,32.495664 37.327928,30.712572 37.315226,29.492735 37.302524,28.272899 38,25 45,33 Z"
       style="fill:#000000;fill-opacity:0.96862745;stroke:#000000;stroke-width:1.01780379px;stroke-linecap:butt;stroke-linejoin:miter;stroke-opacity:1" />
  </g>
</svg>
