<?xml version="1.0" encoding="UTF-8" standalone="no"?>
<!-- Generated by IcoMoon.io -->

<svg
   xmlns:dc="http://purl.org/dc/elements/1.1/"
   xmlns:cc="http://creativecommons.org/ns#"
   xmlns:rdf="http://www.w3.org/1999/02/22-rdf-syntax-ns#"
   xmlns:svg="http://www.w3.org/2000/svg"
   xmlns="http://www.w3.org/2000/svg"
   xmlns:sodipodi="http://sodipodi.sourceforge.net/DTD/sodipodi-0.dtd"
   xmlns:inkscape="http://www.inkscape.org/namespaces/inkscape"
   version="1.1"
   width="64"
   height="64"
   viewBox="0 0 64 64"
   id="svg846"
   sodipodi:docname="001_running.svg"
   inkscape:version="0.92.4 (5da689c313, 2019-01-14)">
  <metadata
     id="metadata852">
    <rdf:RDF>
      <cc:Work
         rdf:about="">
        <dc:format>image/svg+xml</dc:format>
        <dc:type
           rdf:resource="http://purl.org/dc/dcmitype/StillImage" />
        <dc:title />
      </cc:Work>
    </rdf:RDF>
  </metadata>
  <defs
     id="defs850" />
  <sodipodi:namedview
     pagecolor="#ffffff"
     bordercolor="#666666"
     borderopacity="1"
     objecttolerance="10"
     gridtolerance="10"
     guidetolerance="10"
     inkscape:pageopacity="0"
     inkscape:pageshadow="2"
     inkscape:window-width="2490"
     inkscape:window-height="1376"
     id="namedview848"
     showgrid="true"
     showguides="true"
     inkscape:zoom="9.46875"
     inkscape:cx="26.757129"
     inkscape:cy="30.778369"
     inkscape:window-x="70"
     inkscape:window-y="27"
     inkscape:window-maximized="1"
     inkscape:current-layer="svg846">
    <inkscape:grid
       type="xygrid"
       id="grid856" />
  </sodipodi:namedview>
  <rect
     style="opacity:1;fill:#000000;fill-opacity:1;stroke:none;stroke-width:0.60000002;stroke-linecap:round;stroke-linejoin:bevel;stroke-miterlimit:4;stroke-dasharray:none;stroke-opacity:1"
     id="rect858"
     width="64"
     height="64"
     x="0"
     y="0" />
  <g
     id="g874"
     transform="matrix(1.5801411,0,0,1.5801411,-18.848765,-16.913687)">
    <circle
       transform="rotate(4.7961041)"
       r="3.2739275"
       cy="16.635094"
       cx="37.036209"
       id="path854"
       style="opacity:1;fill:#fafafe;fill-opacity:1;stroke:none;stroke-width:3.77952766;stroke-linejoin:bevel;stroke-miterlimit:4;stroke-dasharray:none;stroke-opacity:1" />
    <path
       sodipodi:nodetypes="csssssc"
       inkscape:connector-curvature="0"
       id="path858"
       d="m 28,20 c 0,0 10.359183,6.28815 12.022364,6.427697 1.663182,0.139548 5.971634,-1.305281 6.727975,-0.338659 0.756341,0.966622 -3.807128,2.924599 -6.3019,2.715278 C 37.953667,28.594995 29.460723,22.129588 26.743237,21.332261 25.141722,20.862367 20.85729,21.407726 20.133451,20.510401 19.171946,19.318447 27.087112,18.919891 28,20 Z"
       style="fill:#ffffff;fill-opacity:1;stroke:#fffff2;stroke-width:0.866638px;stroke-linecap:butt;stroke-linejoin:miter;stroke-opacity:1" />
    <path
       sodipodi:nodetypes="csssssc"
       inkscape:connector-curvature="0"
       id="path858-3"
       d="m 24.585631,36.773255 c 0,0 2.770036,-5.428114 3.960417,-7.035283 1.190382,-1.607169 3.128801,-6.025807 4.527575,-6.234201 1.398776,-0.208393 -0.0202,5.733289 -1.805774,8.144042 -1.785573,2.410754 -3.156644,4.71601 -4.347026,6.323179 -1.190381,1.607169 -10.188343,6.072105 -11.086584,4.745662 -0.792967,-1.170985 4.971854,-2.520668 8.751392,-5.943399 z"
       style="fill:#ffffff;fill-opacity:0.96862745;stroke:#ffffff;stroke-width:1px;stroke-linecap:butt;stroke-linejoin:miter;stroke-opacity:1" />
    <path
       sodipodi:nodetypes="cscsssc"
       inkscape:connector-curvature="0"
       id="path858-6"
       d="m 34.467007,38.605855 c 0,0 1.743929,2.46467 3.002118,4.6848 1.03347,1.823605 3.304491,3.872458 2.224382,4.785347 -1.080108,0.912888 -2.665342,-1.17108 -4.346497,-3.26712 -1.465719,-1.827437 -2.23964,-3.892776 -3.360554,-5.358902 -1.273098,-1.665179 -4.973406,-3.765007 -4.884073,-4.981635 0.08933,-1.216626 1.058015,-4.419749 7.364624,4.13751 z"
       style="fill:#ffffff;fill-opacity:1;stroke:#ffffff;stroke-width:1.01780379px;stroke-linecap:butt;stroke-linejoin:miter;stroke-opacity:1" />
  </g>
  <path
     style="fill:none;stroke:#ffffff;stroke-width:2;stroke-linecap:butt;stroke-linejoin:miter;stroke-opacity:1;stroke-miterlimit:4;stroke-dasharray:none"
     d="M 24,22 H 14 v 0"
     id="path876"
     inkscape:connector-curvature="0" />
  <path
     style="fill:none;stroke:#ffffff;stroke-width:2;stroke-linecap:butt;stroke-linejoin:miter;stroke-miterlimit:4;stroke-dasharray:none;stroke-opacity:1"
     d="M 22,26.05611 H 9 v 0"
     id="path876-3"
     inkscape:connector-curvature="0" />
  <path
     style="fill:none;stroke:#ffffff;stroke-width:2;stroke-linecap:butt;stroke-linejoin:miter;stroke-miterlimit:4;stroke-dasharray:none;stroke-opacity:1"
     d="M 20,30.11222 H 6 v 0"
     id="path876-6"
     inkscape:connector-curvature="0" />
</svg>
