<?xml version="1.0" encoding="UTF-8" standalone="no"?>
<!-- Generated by IcoMoon.io -->

<svg
   xmlns:dc="http://purl.org/dc/elements/1.1/"
   xmlns:cc="http://creativecommons.org/ns#"
   xmlns:rdf="http://www.w3.org/1999/02/22-rdf-syntax-ns#"
   xmlns:svg="http://www.w3.org/2000/svg"
   xmlns="http://www.w3.org/2000/svg"
   xmlns:sodipodi="http://sodipodi.sourceforge.net/DTD/sodipodi-0.dtd"
   xmlns:inkscape="http://www.inkscape.org/namespaces/inkscape"
   version="1.1"
   width="64"
   height="64"
   viewBox="0 0 64 64"
   id="svg846"
   sodipodi:docname="002_trail.svg"
   inkscape:version="0.92.4 (5da689c313, 2019-01-14)">
  <metadata
     id="metadata852">
    <rdf:RDF>
      <cc:Work
         rdf:about="">
        <dc:format>image/svg+xml</dc:format>
        <dc:type
           rdf:resource="http://purl.org/dc/dcmitype/StillImage" />
        <dc:title />
      </cc:Work>
    </rdf:RDF>
  </metadata>
  <defs
     id="defs850" />
  <sodipodi:namedview
     pagecolor="#ffffff"
     bordercolor="#666666"
     borderopacity="1"
     objecttolerance="10"
     gridtolerance="10"
     guidetolerance="10"
     inkscape:pageopacity="0"
     inkscape:pageshadow="2"
     inkscape:window-width="2490"
     inkscape:window-height="1376"
     id="namedview848"
     showgrid="true"
     showguides="true"
     inkscape:zoom="9.46875"
     inkscape:cx="3.5756108"
     inkscape:cy="30.778369"
     inkscape:window-x="70"
     inkscape:window-y="27"
     inkscape:window-maximized="1"
     inkscape:current-layer="svg846">
    <inkscape:grid
       type="xygrid"
       id="grid856" />
  </sodipodi:namedview>
  <rect
     style="opacity:1;fill:#000000;fill-opacity:1;stroke:#000001;stroke-width:0.60000002;stroke-linecap:round;stroke-linejoin:bevel;stroke-miterlimit:4;stroke-dasharray:none;stroke-opacity:1"
     id="rect1509"
     width="64"
     height="64"
     x="0"
     y="0" />
  <g
     id="g1516"
     transform="matrix(1.28,0,0,1.28,-7.3415514,-8.9469286)">
    <circle
       transform="rotate(-29.314409)"
       r="3.2739275"
       cy="26.827337"
       cx="7.9188519"
       id="path854"
       style="opacity:1;fill:#ffffff;fill-opacity:1;stroke:none;stroke-width:3.77952766;stroke-linejoin:bevel;stroke-miterlimit:4;stroke-dasharray:none;stroke-opacity:1" />
    <path
       sodipodi:nodetypes="csssssc"
       inkscape:connector-curvature="0"
       id="path858"
       d="m 14,24 c 0,0 12.1033,-0.603016 13.5586,-1.420173 1.455301,-0.817158 4.212268,-4.429555 5.38056,-4.053383 1.168292,0.376173 -1.512051,4.556447 -3.695002,5.782183 -2.18295,1.225737 -12.840488,0.635421 -15.537585,1.499209 C 12.117075,26.316899 8.8755802,29.171105 7.7730605,28.83408 6.308538,28.386396 12.638452,23.617655 14,24 Z"
       style="fill:#ffffff;fill-opacity:1;stroke:#ffffff;stroke-width:0.866638px;stroke-linecap:butt;stroke-linejoin:miter;stroke-opacity:1" />
    <path
       sodipodi:nodetypes="csssssc"
       inkscape:connector-curvature="0"
       id="path858-3"
       d="m 20.579337,39.802288 c 0,0 -0.750566,-6.047658 -0.666266,-8.04588 0.0843,-1.998224 -0.788704,-6.743715 0.252556,-7.700676 1.041262,-0.956962 3.19845,4.758248 3.072001,7.755582 -0.12645,2.997334 0.03113,5.674872 -0.05317,7.673096 -0.0843,1.998222 -5.030333,10.740975 -6.517896,10.146461 -1.313221,-0.524837 2.702916,-4.875176 3.912775,-9.828583 z"
       style="fill:#ffffff;fill-opacity:1;stroke:#ffffff;stroke-width:1px;stroke-linecap:butt;stroke-linejoin:miter;stroke-opacity:1" />
    <path
       sodipodi:nodetypes="cscsssc"
       inkscape:connector-curvature="0"
       id="path858-6"
       d="m 29.788401,35.778217 c 0,0 2.826064,1.062663 5.11282,2.195255 1.87833,0.930307 4.907617,1.353102 4.525273,2.71465 -0.382345,1.361548 -2.863522,0.525096 -5.430886,-0.26756 -2.238364,-0.691078 -4.037361,-1.967083 -5.78762,-2.552374 -1.987888,-0.664756 -6.22915,-0.328225 -6.83746,-1.385638 -0.608309,-1.057413 -1.602564,-4.25269 8.417873,-0.704333 z"
       style="fill:#ffffff;fill-opacity:1;stroke:#ffffff;stroke-width:1.01780379px;stroke-linecap:butt;stroke-linejoin:miter;stroke-opacity:1" />
    <path
       inkscape:connector-curvature="0"
       id="path934"
       d="m 15,54 10,-6 6,-1 8,-4 12,-10 13,-9 v 30 z"
       style="fill:#ffffff;fill-opacity:1;stroke:#ffffff;stroke-width:1px;stroke-linecap:butt;stroke-linejoin:miter;stroke-opacity:1" />
  </g>
</svg>
