<?xml version="1.0" encoding="UTF-8" standalone="no"?>
<!-- Generated by IcoMoon.io -->

<svg
   xmlns:dc="http://purl.org/dc/elements/1.1/"
   xmlns:cc="http://creativecommons.org/ns#"
   xmlns:rdf="http://www.w3.org/1999/02/22-rdf-syntax-ns#"
   xmlns:svg="http://www.w3.org/2000/svg"
   xmlns="http://www.w3.org/2000/svg"
   xmlns:sodipodi="http://sodipodi.sourceforge.net/DTD/sodipodi-0.dtd"
   xmlns:inkscape="http://www.inkscape.org/namespaces/inkscape"
   version="1.1"
   width="64"
   height="64"
   viewBox="0 0 64 64"
   id="svg846"
   sodipodi:docname="003_swimming.svg"
   inkscape:version="0.92.4 (5da689c313, 2019-01-14)">
  <metadata
     id="metadata852">
    <rdf:RDF>
      <cc:Work
         rdf:about="">
        <dc:format>image/svg+xml</dc:format>
        <dc:type
           rdf:resource="http://purl.org/dc/dcmitype/StillImage" />
        <dc:title />
      </cc:Work>
    </rdf:RDF>
  </metadata>
  <defs
     id="defs850" />
  <sodipodi:namedview
     pagecolor="#ffffff"
     bordercolor="#666666"
     borderopacity="1"
     objecttolerance="10"
     gridtolerance="10"
     guidetolerance="10"
     inkscape:pageopacity="0"
     inkscape:pageshadow="2"
     inkscape:window-width="2490"
     inkscape:window-height="1376"
     id="namedview848"
     showgrid="true"
     showguides="true"
     inkscape:zoom="18.9375"
     inkscape:cx="14.995507"
     inkscape:cy="25.557463"
     inkscape:window-x="70"
     inkscape:window-y="27"
     inkscape:window-maximized="1"
     inkscape:current-layer="svg846">
    <inkscape:grid
       type="xygrid"
       id="grid856" />
  </sodipodi:namedview>
  <rect
     style="opacity:1;fill:#000000;fill-opacity:1;stroke:#00002b;stroke-width:0.60000002;stroke-linecap:round;stroke-linejoin:bevel;stroke-miterlimit:4;stroke-dasharray:none;stroke-opacity:1"
     id="rect2120"
     width="64"
     height="64"
     x="0"
     y="0" />
  <ellipse
     style="opacity:1;fill:#ffffff;fill-opacity:0.96862745;stroke:none;stroke-width:4.54619026;stroke-linejoin:bevel;stroke-miterlimit:4;stroke-dasharray:none;stroke-opacity:1"
     id="path854"
     cx="64.813385"
     cy="-13.789697"
     transform="matrix(0.59986457,0.80010155,-0.86178671,0.5072708,0,0)"
     rx="3.8471532"
     ry="4.0310559" />
  <path
     style="fill:#ffffff;fill-opacity:1;stroke:#ffffff;stroke-width:1.03920126px;stroke-linecap:butt;stroke-linejoin:miter;stroke-opacity:1"
     d="m 44.894634,39.276613 c 0,0 0.706485,7.61219 1.882971,9.181391 1.176486,1.569201 15.848728,4.248747 15.481995,5.595471 C 61.892867,55.400198 46.237456,52.377936 44.472728,50.024134 42.708,47.670333 43.924025,42.061731 42.570183,39.098706 c -0.79787,-1.746221 -4.731972,-5.154258 -4.408715,-6.423649 0.429398,-1.686187 7.089356,5.036784 6.733166,6.601556 z"
     id="path858"
     inkscape:connector-curvature="0"
     sodipodi:nodetypes="csssssc" />
  <path
     style="fill:#ffffff;fill-opacity:1;stroke:#ffffff;stroke-width:1.27275932px;stroke-linecap:butt;stroke-linejoin:miter;stroke-opacity:1"
     d="m 22.898665,48.014131 c 0,0 8.574642,-1.354548 11.44342,-1.428078 2.868781,-0.07353 9.566712,-1.456142 11.047848,-0.364765 1.481132,1.091379 -6.466988,4.00119 -10.770156,4.111485 -4.30317,0.110301 -8.11823,0.513336 -10.987009,0.586867 -2.868781,0.07353 -15.9109571,-4.756814 -15.2195352,-6.481309 0.6103904,-1.522385 7.2667372,2.631482 14.4854322,3.5758 z"
     id="path858-3"
     inkscape:connector-curvature="0"
     sodipodi:nodetypes="csssssc" />
  <path
     style="fill:none;stroke:#9b9b9b;stroke-width:1.5;stroke-linecap:butt;stroke-linejoin:miter;stroke-miterlimit:4;stroke-dasharray:none;stroke-opacity:1"
     d="m 2.8803193,52.325239 c 0,0 3.8658642,-3.560053 10.7504137,-3.560053 6.884556,0 9.903244,3.560053 14.820785,3.560053 4.917539,0 9.835079,-3.560053 14.752619,-3.560053 4.91754,0 9.835079,3.560053 14.75262,3.560053 h 4.917539"
     id="path4677"
     inkscape:connector-curvature="0"
     sodipodi:nodetypes="cssssc" />
  <path
     style="fill:none;stroke:#9b9b9b;stroke-width:1.5;stroke-linecap:butt;stroke-linejoin:miter;stroke-miterlimit:4;stroke-dasharray:none;stroke-opacity:1"
     d="m 2.8976904,49.666128 c 0,0 3.8658688,-3.560053 10.7504186,-3.560053 6.884556,0 9.903244,3.560053 14.820785,3.560053 4.917539,0 9.835078,-3.560053 14.752619,-3.560053 4.917539,0 9.835079,3.560053 14.75262,3.560053 h 4.917539"
     id="path4677-7-5"
     inkscape:connector-curvature="0"
     sodipodi:nodetypes="cssssc" />
  <path
     style="fill:none;stroke:#9b9b9b;stroke-width:1.5;stroke-linecap:butt;stroke-linejoin:miter;stroke-miterlimit:4;stroke-dasharray:none;stroke-opacity:1"
     d="m 2.8803197,55.005164 c 0,0 3.8658638,-3.560053 10.7504133,-3.560053 6.884556,0 9.903244,3.560053 14.820785,3.560053 4.917539,0 9.835079,-3.560053 14.752619,-3.560053 4.91754,0 9.835079,3.560053 14.75262,3.560053 h 4.917539"
     id="path4677-7"
     inkscape:connector-curvature="0"
     sodipodi:nodetypes="cssssc" />
</svg>
