<?xml version="1.0" encoding="UTF-8" standalone="no"?>
<!-- Generated by IcoMoon.io -->

<svg
   xmlns:dc="http://purl.org/dc/elements/1.1/"
   xmlns:cc="http://creativecommons.org/ns#"
   xmlns:rdf="http://www.w3.org/1999/02/22-rdf-syntax-ns#"
   xmlns:svg="http://www.w3.org/2000/svg"
   xmlns="http://www.w3.org/2000/svg"
   xmlns:sodipodi="http://sodipodi.sourceforge.net/DTD/sodipodi-0.dtd"
   xmlns:inkscape="http://www.inkscape.org/namespaces/inkscape"
   version="1.1"
   width="64"
   height="64"
   viewBox="0 0 64 64"
   id="svg846"
   sodipodi:docname="005_skihiking.svg"
   inkscape:version="0.92.4 (5da689c313, 2019-01-14)">
  <metadata
     id="metadata852">
    <rdf:RDF>
      <cc:Work
         rdf:about="">
        <dc:format>image/svg+xml</dc:format>
        <dc:type
           rdf:resource="http://purl.org/dc/dcmitype/StillImage" />
        <dc:title />
      </cc:Work>
    </rdf:RDF>
  </metadata>
  <defs
     id="defs850" />
  <sodipodi:namedview
     pagecolor="#ffffff"
     bordercolor="#666666"
     borderopacity="1"
     objecttolerance="10"
     gridtolerance="10"
     guidetolerance="10"
     inkscape:pageopacity="0"
     inkscape:pageshadow="2"
     inkscape:window-width="1245"
     inkscape:window-height="1376"
     id="namedview848"
     showgrid="true"
     showguides="true"
     inkscape:zoom="9.46875"
     inkscape:cx="31.513057"
     inkscape:cy="5.0985782"
     inkscape:window-x="1315"
     inkscape:window-y="27"
     inkscape:window-maximized="0"
     inkscape:current-layer="svg846">
    <inkscape:grid
       type="xygrid"
       id="grid856" />
  </sodipodi:namedview>
  <rect
     style="opacity:1;fill:#000000;fill-opacity:0.99215686;stroke:#000026;stroke-width:0.60000002;stroke-linecap:round;stroke-linejoin:bevel;stroke-miterlimit:4;stroke-dasharray:none;stroke-opacity:1"
     id="rect3349"
     width="64"
     height="64"
     x="0"
     y="0" />
  <circle
     style="opacity:1;fill:#ffffff;fill-opacity:0.98039216;stroke:none;stroke-width:5.63209772;stroke-linejoin:bevel;stroke-miterlimit:4;stroke-dasharray:none;stroke-opacity:1"
     id="path854"
     cx="13.035543"
     cy="21.122984"
     r="4.8786731"
     transform="rotate(-29.314409)" />
  <path
     style="fill:#ffffff;fill-opacity:0.98039216;stroke:#ffffff;stroke-width:1.29142857px;stroke-linecap:butt;stroke-linejoin:miter;stroke-opacity:1"
     d="m 22.588567,18.552172 c 0,0 3.352549,4.62216 5.647112,5.581695 2.294565,0.959538 5.631926,2.367666 6.261793,4.084747 0.629865,1.717082 -3.030742,-0.391995 -6.472587,-1.8313 -3.441847,-1.439302 -3.129539,-3.363355 -6.617929,-5.738472 -2.055837,-1.399741 -3.112916,6.930117 -3.192298,6.051302 -0.205299,-2.272804 3.574025,-10.097675 4.373909,-8.147972 z"
     id="path858"
     inkscape:connector-curvature="0"
     sodipodi:nodetypes="csssssc" />
  <path
     style="fill:#ffffff;fill-opacity:0.98039216;stroke:#ffffff;stroke-width:1.44574797px;stroke-linecap:butt;stroke-linejoin:miter;stroke-opacity:1"
     d="m 22.588567,41.612751 c 0,0 -1.745318,-9.60706 -1.619697,-12.409887 0.12562,-2.80283 -1.175294,-9.459142 0.376349,-10.801434 1.551646,-1.342292 3.900629,8.822174 3.7122,13.026418 -0.188431,4.204241 0.243108,7.605822 0.117484,10.408651 -0.12562,2.802826 -2.855091,12.095407 -5.160307,11.511637 -1.721146,-0.435861 2.573971,-7.527403 2.573971,-11.735385 z"
     id="path858-3"
     inkscape:connector-curvature="0"
     sodipodi:nodetypes="csssssc" />
  <path
     style="fill:#ffffff;fill-opacity:0.98039216;stroke:#ffffff;stroke-width:1.71541989px;stroke-linecap:butt;stroke-linejoin:miter;stroke-opacity:1"
     d="m 28.062955,35.652114 c 0.985056,1.10772 3.029016,4.629705 3.305803,5.564023 1.128556,3.809531 2.544273,10.710563 0.801461,11.72481 -1.742811,0.885147 -1.413325,-4.554511 -2.961349,-11.181718 -0.363652,-1.556813 -3.039504,-3.376493 -5.041031,-3.772824 -0.740164,-0.146562 -2.097807,-4.462389 -1.766459,-6.361318 0.518324,-2.970478 3.08087,1.046709 5.661575,4.027027 z"
     id="path858-6"
     inkscape:connector-curvature="0"
     sodipodi:nodetypes="cscsssc" />
  <path
     style="fill:#ffffff;fill-opacity:0.98039216;stroke:none;stroke-width:1.49015927px;stroke-linecap:butt;stroke-linejoin:miter;stroke-opacity:1"
     d="m 18.11809,19.260363 1.490159,4.470477 V 34.161955 H 13.647612 V 19.260363 Z"
     id="path5333"
     inkscape:connector-curvature="0" />
  <path
     style="fill:none;stroke:#ffffff;stroke-width:1.39529288;stroke-linecap:butt;stroke-linejoin:miter;stroke-miterlimit:4;stroke-dasharray:none;stroke-opacity:1"
     d="m 37.323442,28.306929 -8.960637,32.783502 v 0"
     id="path5335"
     inkscape:connector-curvature="0"
     inkscape:transform-center-x="1.6523311"
     inkscape:transform-center-y="-1.5096261" />
  <path
     style="fill:none;stroke:#ffffff;stroke-width:1.49015927px;stroke-linecap:round;stroke-linejoin:miter;stroke-opacity:1"
     d="m 13.352433,59.76186 c 0,0 35.95948,-11.317393 38.964468,-12.757159 3.004986,-1.439764 3.05517,-4.41966 3.05517,-4.41966"
     id="path5356"
     inkscape:connector-curvature="0"
     sodipodi:nodetypes="csc" />
  <path
     style="fill:none;stroke:#ffffff;stroke-width:1.49015927px;stroke-linecap:round;stroke-linejoin:miter;stroke-opacity:1"
     d="m 5.5984646,58.005208 c 0,0 35.0512914,-9.39189 38.1322804,-10.660897 3.080989,-1.269008 3.29818,-4.241401 3.29818,-4.241401"
     id="path5356-6"
     inkscape:connector-curvature="0"
     sodipodi:nodetypes="csc" />
</svg>
