<?xml version="1.0" encoding="UTF-8" standalone="no"?>
<!-- Generated by IcoMoon.io -->

<svg
   xmlns:dc="http://purl.org/dc/elements/1.1/"
   xmlns:cc="http://creativecommons.org/ns#"
   xmlns:rdf="http://www.w3.org/1999/02/22-rdf-syntax-ns#"
   xmlns:svg="http://www.w3.org/2000/svg"
   xmlns="http://www.w3.org/2000/svg"
   xmlns:sodipodi="http://sodipodi.sourceforge.net/DTD/sodipodi-0.dtd"
   xmlns:inkscape="http://www.inkscape.org/namespaces/inkscape"
   version="1.1"
   width="64"
   height="64"
   viewBox="0 0 64 64"
   id="svg846"
   sodipodi:docname="006_activities.svg"
   inkscape:version="0.92.4 (5da689c313, 2019-01-14)">
  <metadata
     id="metadata852">
    <rdf:RDF>
      <cc:Work
         rdf:about="">
        <dc:format>image/svg+xml</dc:format>
        <dc:type
           rdf:resource="http://purl.org/dc/dcmitype/StillImage" />
        <dc:title></dc:title>
      </cc:Work>
    </rdf:RDF>
  </metadata>
  <defs
     id="defs850" />
  <sodipodi:namedview
     pagecolor="#ffffff"
     bordercolor="#666666"
     borderopacity="1"
     objecttolerance="10"
     gridtolerance="10"
     guidetolerance="10"
     inkscape:pageopacity="0"
     inkscape:pageshadow="2"
     inkscape:window-width="1245"
     inkscape:window-height="1376"
     id="namedview848"
     showgrid="true"
     showguides="true"
     inkscape:zoom="6.6954173"
     inkscape:cx="25.493691"
     inkscape:cy="27.822615"
     inkscape:window-x="70"
     inkscape:window-y="27"
     inkscape:window-maximized="0"
     inkscape:current-layer="svg846">
    <inkscape:grid
       type="xygrid"
       id="grid856" />
  </sodipodi:namedview>
  <rect
     style="opacity:1;fill:#000000;fill-opacity:1;stroke:#000001;stroke-width:0.60000002;stroke-linecap:round;stroke-linejoin:bevel;stroke-miterlimit:4;stroke-dasharray:none;stroke-opacity:1"
     id="rect1509"
     width="64"
     height="64"
     x="0"
     y="0" />
  <g
     transform="translate(7.105366,-30.276613)"
     id="g4676">
    <ellipse
       ry="4.0310559"
       rx="3.8471532"
       transform="matrix(0.59986457,0.80010155,-0.86178671,0.5072708,0,0)"
       cy="-13.789697"
       cx="64.813385"
       id="path854-7"
       style="opacity:1;fill:#ffffff;fill-opacity:0.96862745;stroke:none;stroke-width:4.54619026;stroke-linejoin:bevel;stroke-miterlimit:4;stroke-dasharray:none;stroke-opacity:1" />
    <path
       sodipodi:nodetypes="csssssc"
       inkscape:connector-curvature="0"
       id="path858-9"
       d="m 44.894634,39.276613 c 0,0 0.706485,7.61219 1.882971,9.181391 1.176486,1.569201 15.848728,4.248747 15.481995,5.595471 C 61.892867,55.400198 46.237456,52.377936 44.472728,50.024134 42.708,47.670333 43.924025,42.061731 42.570183,39.098706 c -0.79787,-1.746221 -4.731972,-5.154258 -4.408715,-6.423649 0.429398,-1.686187 7.089356,5.036784 6.733166,6.601556 z"
       style="fill:#ffffff;fill-opacity:1;stroke:#ffffff;stroke-width:1.03920126px;stroke-linecap:butt;stroke-linejoin:miter;stroke-opacity:1" />
    <path
       sodipodi:nodetypes="csssssc"
       inkscape:connector-curvature="0"
       id="path858-3-2"
       d="m 22.898665,48.014131 c 0,0 8.574642,-1.354548 11.44342,-1.428078 2.868781,-0.07353 9.566712,-1.456142 11.047848,-0.364765 1.481132,1.091379 -6.466988,4.00119 -10.770156,4.111485 -4.30317,0.110301 -8.11823,0.513336 -10.987009,0.586867 -2.868781,0.07353 -15.9109571,-4.756814 -15.2195352,-6.481309 0.6103904,-1.522385 7.2667372,2.631482 14.4854322,3.5758 z"
       style="fill:#ffffff;fill-opacity:1;stroke:#ffffff;stroke-width:1.27275932px;stroke-linecap:butt;stroke-linejoin:miter;stroke-opacity:1" />
    <path
       sodipodi:nodetypes="cssssc"
       inkscape:connector-curvature="0"
       id="path4677"
       d="m 2.8803193,52.325239 c 0,0 3.8658642,-3.560053 10.7504137,-3.560053 6.884556,0 9.903244,3.560053 14.820785,3.560053 4.917539,0 9.835079,-3.560053 14.752619,-3.560053 4.91754,0 9.835079,3.560053 14.75262,3.560053 h 4.917539"
       style="fill:none;stroke:#9b9b9b;stroke-width:1.5;stroke-linecap:butt;stroke-linejoin:miter;stroke-miterlimit:4;stroke-dasharray:none;stroke-opacity:1" />
    <path
       sodipodi:nodetypes="cssssc"
       inkscape:connector-curvature="0"
       id="path4677-7-5"
       d="m 2.8976904,49.666128 c 0,0 3.8658688,-3.560053 10.7504186,-3.560053 6.884556,0 9.903244,3.560053 14.820785,3.560053 4.917539,0 9.835078,-3.560053 14.752619,-3.560053 4.917539,0 9.835079,3.560053 14.75262,3.560053 h 4.917539"
       style="fill:none;stroke:#9b9b9b;stroke-width:1.5;stroke-linecap:butt;stroke-linejoin:miter;stroke-miterlimit:4;stroke-dasharray:none;stroke-opacity:1" />
    <path
       sodipodi:nodetypes="cssssc"
       inkscape:connector-curvature="0"
       id="path4677-7"
       d="m 2.8803197,55.005164 c 0,0 3.8658638,-3.560053 10.7504133,-3.560053 6.884556,0 9.903244,3.560053 14.820785,3.560053 4.917539,0 9.835079,-3.560053 14.752619,-3.560053 4.91754,0 9.835079,3.560053 14.75262,3.560053 h 4.917539"
       style="fill:none;stroke:#9b9b9b;stroke-width:1.5;stroke-linecap:butt;stroke-linejoin:miter;stroke-miterlimit:4;stroke-dasharray:none;stroke-opacity:1" />
  </g>
  <rect
     style="opacity:1;fill:#000000;fill-opacity:1;stroke:#000001;stroke-width:0.68771428;stroke-linecap:round;stroke-linejoin:bevel;stroke-miterlimit:4;stroke-dasharray:none;stroke-opacity:1"
     id="rect4735"
     width="37"
     height="48.857391"
     x="-1"
     y="21.973255" />
  <rect
     style="opacity:1;fill:#000000;fill-opacity:1;stroke:#000001;stroke-width:0.60000002;stroke-linecap:round;stroke-linejoin:bevel;stroke-miterlimit:4;stroke-dasharray:none;stroke-opacity:1"
     id="rect5366"
     width="25"
     height="35"
     x="29"
     y="27" />
  <g
     transform="matrix(0.66588051,0,0,0.66588051,24.113761,18.321073)"
     id="g5376">
    <circle
       transform="rotate(-29.314409)"
       r="4.8786731"
       cy="21.122984"
       cx="13.035543"
       id="path854-0"
       style="opacity:1;fill:#ffffff;fill-opacity:0.98039216;stroke:none;stroke-width:5.63209772;stroke-linejoin:bevel;stroke-miterlimit:4;stroke-dasharray:none;stroke-opacity:1" />
    <path
       sodipodi:nodetypes="csssssc"
       inkscape:connector-curvature="0"
       id="path858-2"
       d="m 22.588567,18.552172 c 0,0 3.352549,4.62216 5.647112,5.581695 2.294565,0.959538 5.631926,2.367666 6.261793,4.084747 0.629865,1.717082 -3.030742,-0.391995 -6.472587,-1.8313 -3.441847,-1.439302 -3.129539,-3.363355 -6.617929,-5.738472 -2.055837,-1.399741 -3.112916,6.930117 -3.192298,6.051302 -0.205299,-2.272804 3.574025,-10.097675 4.373909,-8.147972 z"
       style="fill:#ffffff;fill-opacity:0.98039216;stroke:#ffffff;stroke-width:1.29142857px;stroke-linecap:butt;stroke-linejoin:miter;stroke-opacity:1" />
    <path
       sodipodi:nodetypes="csssssc"
       inkscape:connector-curvature="0"
       id="path858-3-3"
       d="m 22.588567,41.612751 c 0,0 -1.745318,-9.60706 -1.619697,-12.409887 0.12562,-2.80283 -1.175294,-9.459142 0.376349,-10.801434 1.551646,-1.342292 3.900629,8.822174 3.7122,13.026418 -0.188431,4.204241 0.243108,7.605822 0.117484,10.408651 -0.12562,2.802826 -2.855091,12.095407 -5.160307,11.511637 -1.721146,-0.435861 2.573971,-7.527403 2.573971,-11.735385 z"
       style="fill:#ffffff;fill-opacity:0.98039216;stroke:#ffffff;stroke-width:1.44574797px;stroke-linecap:butt;stroke-linejoin:miter;stroke-opacity:1" />
    <path
       sodipodi:nodetypes="cscsssc"
       inkscape:connector-curvature="0"
       id="path858-6-7"
       d="m 28.062955,35.652114 c 0.985056,1.10772 3.029016,4.629705 3.305803,5.564023 1.128556,3.809531 2.544273,10.710563 0.801461,11.72481 -1.742811,0.885147 -1.413325,-4.554511 -2.961349,-11.181718 -0.363652,-1.556813 -3.039504,-3.376493 -5.041031,-3.772824 -0.740164,-0.146562 -2.097807,-4.462389 -1.766459,-6.361318 0.518324,-2.970478 3.08087,1.046709 5.661575,4.027027 z"
       style="fill:#ffffff;fill-opacity:0.98039216;stroke:#ffffff;stroke-width:1.71541989px;stroke-linecap:butt;stroke-linejoin:miter;stroke-opacity:1" />
    <path
       inkscape:connector-curvature="0"
       id="path5333"
       d="m 18.11809,19.260363 1.490159,4.470477 V 34.161955 H 13.647612 V 19.260363 Z"
       style="fill:#ffffff;fill-opacity:0.98039216;stroke:none;stroke-width:1.49015927px;stroke-linecap:butt;stroke-linejoin:miter;stroke-opacity:1" />
    <path
       inkscape:transform-center-y="-1.5096261"
       inkscape:transform-center-x="1.6523311"
       inkscape:connector-curvature="0"
       id="path5335"
       d="m 37.323442,28.306929 -8.960637,32.783502 v 0"
       style="fill:none;stroke:#ffffff;stroke-width:1.39529288;stroke-linecap:butt;stroke-linejoin:miter;stroke-miterlimit:4;stroke-dasharray:none;stroke-opacity:1" />
    <path
       sodipodi:nodetypes="csc"
       inkscape:connector-curvature="0"
       id="path5356"
       d="m 13.352433,59.76186 c 0,0 35.95948,-11.317393 38.964468,-12.757159 3.004986,-1.439764 3.05517,-4.41966 3.05517,-4.41966"
       style="fill:none;stroke:#ffffff;stroke-width:1.49015927px;stroke-linecap:round;stroke-linejoin:miter;stroke-opacity:1" />
    <path
       sodipodi:nodetypes="csc"
       inkscape:connector-curvature="0"
       id="path5356-6"
       d="m 5.5984646,58.005208 c 0,0 35.0512914,-9.39189 38.1322804,-10.660897 3.080989,-1.269008 3.29818,-4.241401 3.29818,-4.241401"
       style="fill:none;stroke:#ffffff;stroke-width:1.49015927px;stroke-linecap:round;stroke-linejoin:miter;stroke-opacity:1" />
  </g>
  <g
     id="g5421"
     transform="matrix(0.75888462,0.18011257,-0.18011257,0.75888462,11.411551,10.931665)">
    <circle
       transform="rotate(-29.314409)"
       r="4.1906271"
       cy="21.964111"
       cx="6.3712325"
       id="path854"
       style="opacity:1;fill:#ffffff;fill-opacity:1;stroke:none;stroke-width:4.83779526;stroke-linejoin:bevel;stroke-miterlimit:4;stroke-dasharray:none;stroke-opacity:1" />
    <path
       sodipodi:nodetypes="csssssc"
       inkscape:connector-curvature="0"
       id="path858"
       d="m 8.578449,21.773071 c 0,0 15.492224,-0.77186 17.355008,-1.817821 1.862785,-1.045962 5.391703,-5.66983 6.887116,-5.18833 1.495414,0.481501 -1.935425,5.832252 -4.729602,7.401194 -2.794176,1.568943 -16.435825,0.813339 -19.888109,1.918987 -2.0345574,0.651601 -6.1836707,4.304985 -7.594896,3.873593 -1.8745888,-0.573036 6.2277012,-6.677024 7.970483,-6.187623 z"
       style="fill:#ffffff;fill-opacity:1;stroke:#ffffff;stroke-width:1.10929668px;stroke-linecap:butt;stroke-linejoin:miter;stroke-opacity:1" />
    <path
       sodipodi:nodetypes="csssssc"
       inkscape:connector-curvature="0"
       id="path858-3"
       d="m 17,42 c 0,0 -0.960725,-7.741002 -0.852821,-10.298726 0.107904,-2.557727 -1.009541,-8.631956 0.323272,-9.856866 1.332816,-1.224911 4.094016,6.090558 3.932161,9.927145 -0.161856,3.836588 0.03985,7.263836 -0.06806,9.821563 -0.107904,2.557724 -6.438826,13.748448 -8.342907,12.98747 C 10.310725,53.908795 15.45138,48.340361 17,42 Z"
       style="fill:#ffffff;fill-opacity:1;stroke:#ffffff;stroke-width:1.27999997px;stroke-linecap:butt;stroke-linejoin:miter;stroke-opacity:1" />
    <path
       sodipodi:nodetypes="cscsssc"
       inkscape:connector-curvature="0"
       id="path858-6"
       d="m 28.787602,36.849189 c 0,0 3.617362,1.360209 6.544409,2.809927 2.404263,1.190793 6.28175,1.73197 5.79235,3.474752 -0.489402,1.742781 -3.665308,0.672122 -6.951534,-0.342477 -2.865106,-0.88458 -5.167822,-2.517866 -7.408154,-3.267039 -2.544496,-0.850888 -7.973312,-0.420128 -8.751949,-1.773617 -0.778635,-1.353488 -2.051281,-5.443443 10.774878,-0.901546 z"
       style="fill:#ffffff;fill-opacity:1;stroke:#ffffff;stroke-width:1.30278885px;stroke-linecap:butt;stroke-linejoin:miter;stroke-opacity:1" />
  </g>
</svg>
