<?xml version="1.0" encoding="UTF-8" standalone="no"?>
<svg
   xmlns:dc="http://purl.org/dc/elements/1.1/"
   xmlns:cc="http://creativecommons.org/ns#"
   xmlns:rdf="http://www.w3.org/1999/02/22-rdf-syntax-ns#"
   xmlns:svg="http://www.w3.org/2000/svg"
   xmlns="http://www.w3.org/2000/svg"
   xmlns:sodipodi="http://sodipodi.sourceforge.net/DTD/sodipodi-0.dtd"
   xmlns:inkscape="http://www.inkscape.org/namespaces/inkscape"
   id="svg925"
   version="1.1"
   width="1115"
   viewBox="0 0 1115 1919.9999"
   height="1920"
   style="enable-background:new"
   sodipodi:docname="splash.svg"
   inkscape:version="0.92.4 (5da689c313, 2019-01-14)">
  <sodipodi:namedview
     pagecolor="#ffffff"
     bordercolor="#666666"
     borderopacity="1"
     objecttolerance="10"
     gridtolerance="10"
     guidetolerance="10"
     inkscape:pageopacity="0"
     inkscape:pageshadow="2"
     inkscape:window-width="2490"
     inkscape:window-height="1376"
     id="namedview1750"
     showgrid="true"
     inkscape:zoom="0.255398"
     inkscape:cx="-1485.0742"
     inkscape:cy="-29.149855"
     inkscape:window-x="70"
     inkscape:window-y="27"
     inkscape:window-maximized="1"
     inkscape:current-layer="svg925"
     showguides="true"
     inkscape:guide-bbox="true">
    <sodipodi:guide
       position="598.02762,2237.0663"
       orientation="1,0"
       id="guide6046"
       inkscape:locked="false" />
    <inkscape:grid
       type="xygrid"
       id="grid4074" />
  </sodipodi:namedview>
  <metadata
     id="metadata929">
    <rdf:RDF>
      <cc:Work
         rdf:about="">
        <dc:format>image/svg+xml</dc:format>
        <dc:type
           rdf:resource="http://purl.org/dc/dcmitype/StillImage" />
        <dc:title></dc:title>
      </cc:Work>
    </rdf:RDF>
  </metadata>
  <defs
     id="defs897" />
  <path
     id="path909"
     style="color:#000000;display:none;fill:#ffffff;stroke:#cccccc;stroke-width:4;enable-background:accumulate"
     d="m 0.50369568,1638.0902 c -7.84199998,0 -14.54999968,5.029 -17.31999968,12.19 -0.0612,-7e-4 -0.1208,0 -0.1823,0 -7.088,0 -12.83,6.002 -12.83,13.41 0,7.404 5.746,13.41 12.83,13.41 H 0.50139568 16.831396 c 5.155,0 9.333,-4.365 9.333,-9.75 0,-4.543 -2.974,-8.363 -7,-9.445 0.001,-0.1029 0,-0.2015 0,-0.3047 0,-10.77 -8.357,-19.5 -18.67000032,-19.5 z"
     inkscape:connector-curvature="0" />
  <path
     id="path911"
     d="m 497.7037,1860.5902 c -6.349,0 -11.78,4.072 -14.02,9.867 -0.0496,-6e-4 -0.0978,0 -0.1476,0 -5.738,0 -10.39,4.86 -10.39,10.85 0,5.995 4.652,10.85 10.39,10.85 h 14.17 13.22 c 4.173,0 7.557,-3.534 7.557,-7.894 0,-3.678 -2.408,-6.771 -5.667,-7.647 10e-4,-0.083 0,-0.1632 0,-0.2467 0,-8.719 -6.766,-15.79 -15.11,-15.79 z"
     style="color:#000000;display:none;fill:none;stroke:#cccccc;stroke-width:4;enable-background:accumulate"
     inkscape:connector-curvature="0" />
  <g
     id="g923"
     transform="translate(208.8037,474.09014)"
     style="display:none">
    <path
       id="path913"
       style="display:inline;fill:#0000ff;fill-opacity:0.08117999;stroke:#0000ff"
       d="M 166.1,576.4 H 346 c 145.3,0 166.1,20.74 166.1,165.9 v 144.2 c 0,145.2 -20.76,165.9 -166.1,165.9 H 166.1 C 20.8,1052.4 0,1032.4 0,886.9 V 742.7 C 0,597.5 20.76,576.8 166.1,576.8 Z"
       inkscape:connector-curvature="0" />
    <circle
       id="circle915"
       r="120"
       cy="238"
       transform="matrix(1.2,0,0,1.2,-51.2,528.8)"
       cx="256"
       style="color:#000000;display:inline;fill:#0000ff;fill-opacity:0.08117999;stroke:#0000ff;stroke-width:0.83329999;enable-background:accumulate" />
    <rect
       id="rect917"
       x="120"
       y="678.40002"
       width="272"
       height="272"
       style="color:#000000;display:inline;fill:#0000ff;fill-opacity:0.08117999;stroke:#0000ff;stroke-linecap:round;stroke-linejoin:round;enable-background:accumulate" />
    <rect
       id="rect919"
       x="104"
       y="694.40002"
       width="304"
       height="240"
       style="color:#000000;display:inline;fill:#0000ff;fill-opacity:0.08117999;stroke:#0000ff;stroke-linecap:round;stroke-linejoin:round;enable-background:accumulate" />
    <rect
       id="rect921"
       x="136"
       y="662.40002"
       width="240"
       height="304"
       style="color:#000000;display:inline;fill:#0000ff;fill-opacity:0.08117999;stroke:#0000ff;stroke-linecap:round;stroke-linejoin:round;enable-background:accumulate" />
  </g>
  <path
     id="path916"
     d="M -32.44923,952.25921 V -59.779953 H 597.15145 1226.752 V 952.25921 1964.2983 H 597.15145 -32.44923 Z"
     style="fill:#ffffac;fill-opacity:1;stroke:#ffffff;stroke-width:0;stroke-linejoin:bevel;stroke-miterlimit:4;stroke-dasharray:none;stroke-opacity:1"
     inkscape:connector-curvature="0" />
  <rect
     style="opacity:0.4;fill:#f8e303;fill-opacity:1;stroke:#ffffff;stroke-width:0;stroke-linejoin:bevel;stroke-miterlimit:4;stroke-dasharray:none;stroke-opacity:1;enable-background:new"
     id="rect901-3"
     width="1823.175"
     height="2553.3782"
     x="-2413.6731"
     y="-1700.5021"
     transform="matrix(-0.80349111,-0.59531675,0.30044521,-0.95379908,0,0)" />
  <rect
     style="opacity:0.4;fill:#010003;fill-opacity:1;stroke:#ffffff;stroke-width:0;stroke-linejoin:bevel;stroke-miterlimit:4;stroke-dasharray:none;stroke-opacity:1"
     id="rect901"
     width="1725.4191"
     height="2441.884"
     x="1115.6766"
     y="-1104.8992"
     transform="matrix(0.64127486,0.76731125,-0.55939646,0.82890024,0,0)" />
  <rect
     style="opacity:0.4;fill:#f8a903;fill-opacity:1;stroke:#ffffff;stroke-width:0;stroke-linejoin:bevel;stroke-miterlimit:4;stroke-dasharray:none;stroke-opacity:1;enable-background:new"
     id="rect901-3-2"
     width="2036.0331"
     height="2817.2051"
     x="-2840.363"
     y="-1608.0446"
     transform="matrix(-0.73964976,-0.672992,0.41278736,-0.91082742,0,0)" />
  <path
     style="fill:#000003;fill-opacity:0.73333333;stroke:none;stroke-width:1px;stroke-linecap:butt;stroke-linejoin:miter;stroke-opacity:1"
     d="m 598.02764,786.59321 c 25,0 170.00001,289.99999 145,289.99999 -25,0 -269.99999,0 -289.99999,0 -20,0 119.99999,-289.99999 144.99999,-289.99999 z"
     id="path905"
     inkscape:connector-curvature="0" />
</svg>
